<svg xmlns="http://www.w3.org/2000/svg" width="1440" height="900" viewBox="0 0 1440 900">
  <rect width="1440" height="900" fill="#FAF7F2"/>
  <rect width="240" height="900" fill="#F3EDE4"/>
  <line x1="240" y1="0" x2="240" y2="900" stroke="#E9E4DE"/>
  <g font-family="Inter, Arial, sans-serif" fill="#3B2923">
    <rect x="32" y="30" width="34" height="34" rx="11" fill="#B85C47"/>
    <path d="M42 56V38h14v18M39 43h20" fill="none" stroke="#fff" stroke-width="1.8" stroke-linecap="round"/>
    <text x="78" y="51" font-size="16" font-weight="700">Gerador de Aulas</text>
    <text x="32" y="113" font-size="10" font-weight="700" letter-spacing="1.5" fill="#77716C">WORKSPACE</text>
    <rect x="16" y="136" width="208" height="42" rx="8" fill="#E9D4CB"/>
    <g font-size="13" font-weight="600" fill="#9A4F3D">
      <text x="54" y="162">Visão geral</text>
      <text x="54" y="214" fill="#4A4643" font-weight="500">Criar aula</text>
      <text x="54" y="266" fill="#4A4643" font-weight="500">Banco de questões</text>
      <text x="54" y="318" fill="#4A4643" font-weight="500">Configurações</text>
    </g>
    <g fill="none" stroke="#9A4F3D" stroke-width="1.8" stroke-linecap="round" stroke-linejoin="round">
      <rect x="29" y="149" width="15" height="15" rx="2"/><path d="M31 159h11M36 153v8"/>
      <path d="M36 195v18M27 204h18" stroke="#77716C"/>
      <path d="M29 244h14v20H29zM32 248h8M32 253h8" stroke="#77716C"/>
      <path d="M29 298h15M31 294v20M42 294v20" stroke="#77716C"/>
    </g>
    <line x1="32" y1="730" x2="208" y2="730" stroke="#D8CEC5"/>
    <text x="32" y="764" font-size="11" fill="#77716C">Plano Professor</text><text x="194" y="764" text-anchor="end" font-size="11" fill="#77716C">44%</text>
    <rect x="32" y="777" width="176" height="5" rx="3" fill="#DFD3C8"/><rect x="32" y="777" width="78" height="5" rx="3" fill="#D9823B"/>
    <text x="32" y="803" font-size="10" fill="#77716C">11 de 25 gerações</text>
    <circle cx="48" cy="850" r="16" fill="#DFC0B1"/><text x="48" y="854" text-anchor="middle" font-size="11" font-weight="700" fill="#9A4F3D">IS</text>
    <text x="74" y="849" font-size="12" font-weight="600">Isabela Santos</text><text x="74" y="867" font-size="10" fill="#77716C">Professora de inglês</text>
    <line x1="240" y1="76" x2="1440" y2="76" stroke="#E9E4DE"/>
    <text x="280" y="45" font-size="12" fill="#77716C">Workspace</text><text x="348" y="45" font-size="12" fill="#CFC7BF">/</text><text x="365" y="45" font-size="12" font-weight="600">Visão geral</text>
    <circle cx="1354" cy="38" r="17" fill="#B85C47"/><text x="1354" y="42" text-anchor="middle" font-size="11" font-weight="700" fill="#fff">IS</text>
  </g>
  <g transform="translate(280 126)">
    <rect width="1100" height="230" rx="24" fill="#F3E4DA"/>
    <circle cx="975" cy="86" r="72" fill="none" stroke="#D5A998"/><circle cx="975" cy="86" r="43" fill="#F9E2C9"/>
    <g transform="rotate(4 1020 165)"><rect x="946" y="114" width="150" height="94" rx="14" fill="#fff" opacity=".84" stroke="#E1BCAF"/><text x="1021" y="150" text-anchor="middle" font-family="Georgia, serif" font-size="18" fill="#9A4F3D">Uma boa aula</text><text x="1021" y="174" text-anchor="middle" font-family="Georgia, serif" font-size="18" fill="#9A4F3D">começa com</text><text x="1021" y="198" text-anchor="middle" font-family="Georgia, serif" font-size="18" fill="#9A4F3D">uma pergunta.</text></g>
    <text x="32" y="43" font-family="Inter, Arial, sans-serif" font-size="11" font-weight="700" letter-spacing="1.2" fill="#9A4F3D">QUARTA-FEIRA, 4 DE SETEMBRO</text>
    <text x="32" y="94" font-family="Georgia, serif" font-size="48" fill="#3B2923">Boa tarde, Isabela.</text>
    <text x="32" y="128" font-family="Inter, Arial, sans-serif" font-size="15" fill="#77716C">O que você quer ensinar hoje? Organize a próxima aula com contexto, clareza</text><text x="32" y="151" font-family="Inter, Arial, sans-serif" font-size="15" fill="#77716C">e um pouco de ajuda da IA.</text>
    <rect x="32" y="177" width="150" height="40" rx="8" fill="#B85C47"/><text x="52" y="202" font-family="Inter, Arial, sans-serif" font-size="12" font-weight="600" fill="#fff">+  Criar nova aula</text>
  </g>
  <g transform="translate(280 395)" font-family="Inter, Arial, sans-serif">
    <g fill="#3B2923"><text x="0" y="0" font-family="Georgia, serif" font-size="25">Aulas recentes</text><text x="1010" y="0" text-anchor="end" font-size="12" font-weight="600" fill="#9A4F3D">Ver todas as aulas  →</text></g>
    <g transform="translate(0 28)">
      <g><rect width="350" height="185" rx="16" fill="#fff" stroke="#E9E4DE"/><rect x="20" y="20" width="58" height="22" rx="11" fill="#F9E2D4"/><text x="49" y="35" text-anchor="middle" font-size="10" font-weight="600" fill="#9A4F3D">INGLÊS</text><rect x="269" y="20" width="60" height="22" rx="11" fill="#EEF4EE"/><text x="299" y="35" text-anchor="middle" font-size="10" font-weight="600" fill="#5F7F67">PRONTA</text><text x="20" y="82" font-family="Georgia, serif" font-size="22">Travel experiences</text><text x="20" y="108" font-size="12" fill="#77716C">Conversação sobre viagens com revisão</text><text x="20" y="126" font-size="12" fill="#77716C">de present perfect.</text><text x="20" y="163" font-size="10" fill="#77716C">Intermediário · 60 min</text><text x="329" y="163" text-anchor="end" font-size="11" font-weight="600" fill="#9A4F3D">Abrir aula  →</text></g>
      <g transform="translate(375 0)"><rect width="350" height="185" rx="16" fill="#fff" stroke="#E9E4DE"/><rect x="20" y="20" width="58" height="22" rx="11" fill="#F9E2D4"/><text x="49" y="35" text-anchor="middle" font-size="10" font-weight="600" fill="#9A4F3D">INGLÊS</text><rect x="266" y="20" width="63" height="22" rx="11" fill="#FBF0DE"/><text x="297" y="35" text-anchor="middle" font-size="10" font-weight="600" fill="#9B6E2C">RASCUNHO</text><text x="20" y="82" font-family="Georgia, serif" font-size="22">Food and culture</text><text x="20" y="108" font-size="12" fill="#77716C">Vocabulário, leitura e atividade de fala</text><text x="20" y="126" font-size="12" fill="#77716C">para pequenos grupos.</text><text x="20" y="163" font-size="10" fill="#77716C">Intermediário · 45 min</text><text x="329" y="163" text-anchor="end" font-size="11" font-weight="600" fill="#9A4F3D">Continuar  →</text></g>
      <g transform="translate(750 0)"><rect width="350" height="185" rx="16" fill="#fff" stroke="#E9E4DE"/><rect x="20" y="20" width="58" height="22" rx="11" fill="#F9E2D4"/><text x="49" y="35" text-anchor="middle" font-size="10" font-weight="600" fill="#9A4F3D">INGLÊS</text><rect x="269" y="20" width="60" height="22" rx="11" fill="#EEF4EE"/><text x="299" y="35" text-anchor="middle" font-size="10" font-weight="600" fill="#5F7F67">PRONTA</text><text x="20" y="82" font-family="Georgia, serif" font-size="22">Past narratives</text><text x="20" y="108" font-size="12" fill="#77716C">Sequência com narrativa, escrita guiada e</text><text x="20" y="126" font-size="12" fill="#77716C">avaliação formativa.</text><text x="20" y="163" font-size="10" fill="#77716C">Avançado · 90 min</text><text x="329" y="163" text-anchor="end" font-size="11" font-weight="600" fill="#9A4F3D">Abrir aula  →</text></g>
    </g>
  </g>
  <g transform="translate(280 650)" font-family="Inter, Arial, sans-serif">
    <line x1="0" y1="0" x2="1100" y2="0" stroke="#E9E4DE"/><text y="34" font-size="10" fill="#77716C">12</text><text x="30" y="34" font-size="11" fill="#77716C">aulas criadas</text><text x="360" y="34" font-size="10" fill="#77716C">8h 40</text><text x="420" y="34" font-size="11" fill="#77716C">tempo de preparação economizado</text><text x="760" y="34" font-size="10" fill="#77716C">94%</text><text x="820" y="34" font-size="11" fill="#77716C">das aulas alinhadas a objetivos</text>
  </g>
</svg>
